# xmcd
#
# Track frame offsets:
#	150
#	13690
#	30150
#	43512
#	55737
#	71202
#	83550
#	96857
#	114827
#	129682
#	142972
#	153540
#
# Disc length: 2226 seconds
#
# Revision: 0
# Processed by: cddbd v1.5.2PL0 Copyright (c) Steve Scherf et al.
# Submitted via: EasyCDDAExtractor 12.0.4.1
#
DISCID=9208b00c
DTITLE=Zé Mulato e Cassiano - Braza Viva
DYEAR=1900
DGENRE=Sertanejo
TTITLE0=Amigo da Onça
TTITLE1=Quem Cria Cobra
TTITLE2=Rio Corumbá
TTITLE3=Sincero Convite
TTITLE4=Nobre Senhor
TTITLE5=Meu Lamento
TTITLE6=Brasa Viva
TTITLE7=O Caçador
TTITLE8=Coisas da Minha Terra
TTITLE9=Coração de Madeira
TTITLE10=Murro em Ponta de Faca
TTITLE11=Tarde no Sertão
EXTD=
EXTT0=
EXTT1=
EXTT2=
EXTT3=
EXTT4=
EXTT5=
EXTT6=
EXTT7=
EXTT8=
EXTT9=
EXTT10=
EXTT11=
PLAYORDER=
